<svg width="50" height="50" viewBox="0 0 50 50" fill="none" xmlns="http://www.w3.org/2000/svg">
<rect x="3" y="3" width="44" height="44" rx="6" fill="#2495FC"/>
<path d="M23.4496 22.3331H19.3658C19.3113 21.9138 19.1997 21.5354 19.0309 21.1978C18.8621 20.8602 18.6388 20.5716 18.3612 20.332C18.0835 20.0924 17.754 19.91 17.3729 19.7848C16.9972 19.6541 16.5806 19.5888 16.1232 19.5888C15.3119 19.5888 14.6122 19.7875 14.0241 20.185C13.4415 20.5825 12.9923 21.157 12.6765 21.9084C12.3661 22.6598 12.2109 23.5691 12.2109 24.6364C12.2109 25.7472 12.3688 26.6783 12.6847 27.4297C13.0059 28.1757 13.4551 28.7392 14.0323 29.1204C14.6149 29.4961 15.3037 29.6839 16.0987 29.6839C16.5452 29.6839 16.9509 29.6268 17.3157 29.5124C17.686 29.3981 18.0099 29.232 18.2876 29.0142C18.5708 28.791 18.8022 28.5214 18.9819 28.2056C19.167 27.8844 19.295 27.5223 19.3658 27.1193L23.4496 27.1438C23.3788 27.8844 23.1637 28.614 22.8043 29.3327C22.4504 30.0515 21.9631 30.7076 21.3423 31.3011C20.7216 31.8892 19.9647 32.3575 19.0717 32.706C18.1842 33.0545 17.166 33.2287 16.017 33.2287C14.5033 33.2287 13.1475 32.8965 11.9496 32.2322C10.7571 31.5625 9.8151 30.5878 9.12358 29.3082C8.43205 28.0286 8.08629 26.4714 8.08629 24.6364C8.08629 22.7959 8.4375 21.2359 9.13991 19.9563C9.84233 18.6767 10.7925 17.7048 11.9904 17.0405C13.1883 16.3762 14.5305 16.044 16.017 16.044C17.0298 16.044 17.9664 16.1856 18.8267 16.4688C19.687 16.7464 20.4439 17.1548 21.0973 17.6939C21.7507 18.2275 22.2816 18.8836 22.69 19.6623C23.0984 20.4409 23.3516 21.3312 23.4496 22.3331ZM29.561 16.2727L33.3018 28.5241H33.4406L37.1814 16.2727H41.7062L36.0624 33H30.68L25.0361 16.2727H29.561Z" fill="white"/>
</svg>
